<svg version="1.0" xmlns="http://www.w3.org/2000/svg" viewBox="0 0 1730 1730"><path d="M610 1523v-118l-63-32c-125-65-235-190-297-340-28-67-32-87-33-182-1-58 1-119 6-134l8-28-40 21c-22 11-53 37-70 57-17 21-40 49-51 63l-21 25 3-115c3-102 6-121 31-172 52-106 149-163 295-174 52-4 101-16 151-36 108-44 190-58 336-58 145 0 232 15 327 56 42 18 93 29 154 35 164 15 258 69 311 177 25 51 28 70 31 172 3 129 8 125-61 36-31-40-55-58-107-80l-36-15 10 66c34 231-111 509-327 623l-47 25-1 95c-1 52-4 109-8 125-7 30-7 29-48-40-22-38-47-84-56-100l-15-30-128 2-128 1-55 96c-30 53-58 96-63 96-4 0-8-53-8-117z" fill="#030303"/><g fill="#ec9d01"><path d="M637 1450c3-69 7-126 8-128 2-2 19 5 38 15l36 18-44 110-44 110 6-125zM1043 1463l-42-108 36-18c19-10 36-17 38-15 3 4 16 248 12 248-1 0-21-48-44-107zM737 1394c-4-4-7-13-7-21 0-10 28-13 131-13 119 0 130 2 127 18-3 15-18 17-124 20-66 1-123-1-127-4z"/><path d="M514 1312c-99-55-166-141-200-257-20-70-24-266-6-329 9-31 8-46-5-77-27-69-1-143 65-181 29-17 30-17 78 17 27 19 57 35 66 35 23 0 41-36 34-65-5-18 1-28 21-44 16-12 34-26 41-32 50-42 294-53 425-20 121 31 152 53 140 99-7 27 13 62 36 62 10 0 39-16 65-36 45-34 48-35 71-20 75 49 99 111 72 184-9 24-15 48-12 52 3 5 12 55 20 112 34 241-40 407-222 501-43 23-46 22-38-13s8-35-31-15c-17 8-85 20-152 26-137 14-335 1-398-26l-36-15 7 30c8 34 2 36-41 12zm406-51c0-4-13-20-30-36l-30-29-30 29c-16 16-30 32-30 36s27 7 60 7 60-3 60-7zm-288-97c36-34 54-72 63-136l7-48H536c-150 0-202 8-145 23 12 3 18 10 14 16-12 21 7 102 33 133 33 39 57 49 115 44 36-2 55-10 79-32zm623 12c39-26 58-63 59-117 1-37 5-50 19-55 9-3 17-10 17-15s-70-9-166-9h-167l7 52c4 28 13 63 21 77 17 33 64 78 90 84 33 9 94 0 120-17z"/><path d="M505 1141c-30-13-63-52-70-83l-7-28h244l-7 28c-15 63-102 109-160 83zM1125 1141c-30-13-63-52-70-83l-7-28h244l-7 28c-15 63-102 109-160 83zM80 710c0-28 2-30 21-20 20 11 20 12 3 31-23 25-24 24-24-11zM1616 721c-17-19-17-20 3-31 19-10 21-8 21 20 0 35-1 36-24 11zM112 678c-17-17-15-64 4-93l16-24 24 47 24 47-21 18c-25 20-31 21-47 5zM1561 673l-21-18 24-47 24-47 16 24c19 29 21 76 4 93-16 16-22 15-47-5zM232 650c-48-11-57-24-57-79 0-68 28-97 123-126 23-7 23-6-5 36-29 44-37 108-20 157 9 24 9 24-41 12zM1458 595c4-57 2-69-23-110l-27-47 23 7c53 16 98 49 109 78 24 70 2 120-56 130l-32 6 6-64z"/></g><g fill="#fefefe"><path d="M637 1450c3-69 7-126 8-128 2-2 19 5 38 15l36 18-44 110-44 110 6-125zM1043 1463l-42-108 36-18c19-10 36-17 38-15 3 4 16 248 12 248-1 0-21-48-44-107zM737 1394c-4-4-7-13-7-21 0-10 28-13 131-13 119 0 130 2 127 18-3 15-18 17-124 20-66 1-123-1-127-4z"/><path d="M514 1312c-99-55-166-141-200-257-20-70-24-266-6-329 9-31 8-46-5-77-27-69-1-143 65-181 29-17 30-17 78 17 27 19 57 35 66 35 22 0 40-32 36-66-2-19 5-32 24-47 15-11 30-19 32-16 3 2-8 31-24 64s-30 67-30 75 28-13 63-46c113-109 161-144 201-144 20 0 36 1 36 3 0 1-22 26-48 54-48 51-104 150-118 208-6 26 6 18 87-63 52-52 122-112 157-135 34-23 62-45 62-49 0-8 45-1 63 9 4 2-19 33-50 68-60 66-155 211-168 255-6 18 20-2 94-72 93-88 210-178 232-178 5 0 9 9 9 21 0 31 18 59 39 59 10 0 39-16 65-36 45-34 48-35 71-20 75 49 99 111 72 184-9 24-15 48-12 52 3 5 12 55 20 112 34 241-40 407-222 501-43 23-46 22-38-13s8-35-31-15c-17 8-85 20-152 26-137 14-335 1-398-26l-36-15 7 30c8 34 2 36-41 12zm406-51c0-4-13-20-30-36l-30-29-30 29c-16 16-30 32-30 36s27 7 60 7 60-3 60-7zm343-65c61-25 107-102 107-180 0-16 8-34 17-41 12-9 17-28 18-66v-54l-130-3c-218-5-271 17-282 121-3 30-3 71 1 91 9 47 57 102 104 117 20 6 41 15 47 20 14 14 81 11 118-5zm-659-8c22-6 54-20 70-31 80-56 89-225 13-279-30-21-44-23-193-26-147-4-162-2-168 14-10 26 4 102 20 108 8 3 14 18 14 34 0 51 29 127 59 156 16 15 33 26 38 23 4-2 17-1 28 4 29 11 72 11 119-3z"/><path d="M1125 1141c-30-13-63-52-70-83l-7-28h244l-7 28c-15 63-102 109-160 83zM505 1141c-30-13-63-52-70-83l-7-28h244l-7 28c-15 63-102 109-160 83zM80 710c0-28 2-30 21-20 20 11 20 12 3 31-23 25-24 24-24-11zM1616 721c-17-19-17-20 3-31 19-10 21-8 21 20 0 35-1 36-24 11zM112 678c-17-17-15-64 4-93l16-24 24 47 24 47-21 18c-25 20-31 21-47 5zM1561 673l-21-18 24-47 24-47 16 24c19 29 21 76 4 93-16 16-22 15-47-5zM232 650c-48-11-57-24-57-79 0-68 28-97 123-126 23-7 23-6-5 36-29 44-37 108-20 157 9 24 9 24-41 12zM1458 595c4-57 2-69-23-110l-27-47 23 7c53 16 98 49 109 78 24 70 2 120-56 130l-32 6 6-64z"/></g></svg>